%TF.GenerationSoftware,KiCad,Pcbnew,(7.0.0-0)*%
%TF.CreationDate,2023-05-01T13:52:14-07:00*%
%TF.ProjectId,keyboard_pcb,6b657962-6f61-4726-945f-7063622e6b69,rev1.0*%
%TF.SameCoordinates,PX78114e0PY44b6550*%
%TF.FileFunction,Soldermask,Bot*%
%TF.FilePolarity,Negative*%
%FSLAX46Y46*%
G04 Gerber Fmt 4.6, Leading zero omitted, Abs format (unit mm)*
G04 Created by KiCad (PCBNEW (7.0.0-0)) date 2023-05-01 13:52:14*
%MOMM*%
%LPD*%
G01*
G04 APERTURE LIST*
G04 Aperture macros list*
%AMHorizOval*
0 Thick line with rounded ends*
0 $1 width*
0 $2 $3 position (X,Y) of the first rounded end (center of the circle)*
0 $4 $5 position (X,Y) of the second rounded end (center of the circle)*
0 Add line between two ends*
20,1,$1,$2,$3,$4,$5,0*
0 Add two circle primitives to create the rounded ends*
1,1,$1,$2,$3*
1,1,$1,$4,$5*%
%AMFreePoly0*
4,1,28,-0.850000,0.400000,0.000000,1.250000,0.114750,1.242219,0.293119,1.197860,0.457783,1.116195,0.601041,1.001041,0.716195,0.857783,0.797860,0.693119,0.842219,0.514750,0.850000,0.400000,0.850000,-0.400000,0.842219,-0.514750,0.797860,-0.693119,0.716195,-0.857783,0.601041,-1.001041,0.457783,-1.116195,0.293119,-1.197860,0.114750,-1.242219,0.000000,-1.250000,-0.114750,-1.242219,
-0.293119,-1.197860,-0.457783,-1.116195,-0.601041,-1.001041,-0.716195,-0.857783,-0.797860,-0.693119,-0.842219,-0.514750,-0.850000,-0.400000,-0.850000,0.400000,-0.850000,0.400000,$1*%
%AMFreePoly1*
4,1,28,-0.850000,0.400000,-0.842219,0.514750,-0.797860,0.693119,-0.716195,0.857783,-0.601041,1.001041,-0.457783,1.116195,-0.293119,1.197860,-0.114750,1.242219,0.000000,1.250000,0.114750,1.242219,0.293119,1.197860,0.457783,1.116195,0.601041,1.001041,0.716195,0.857783,0.797860,0.693119,0.842219,0.514750,0.850000,0.400000,0.850000,-0.400000,0.842219,-0.514750,0.797860,-0.693119,
0.716195,-0.857783,0.601041,-1.001041,0.457783,-1.116195,0.293119,-1.197860,0.114750,-1.242219,0.000000,-1.250000,-0.850000,-0.400000,-0.850000,0.400000,-0.850000,0.400000,$1*%
G04 Aperture macros list end*
%ADD10C,1.800000*%
%ADD11C,1.700000*%
%ADD12C,4.900000*%
%ADD13O,2.200000X1.600000*%
%ADD14C,2.400000*%
%ADD15O,2.200000X1.500000*%
%ADD16HorizOval,1.500000X1.449945X0.012653X-1.449945X-0.012653X0*%
%ADD17HorizOval,1.600000X0.298858X0.026147X-0.298858X-0.026147X0*%
%ADD18HorizOval,1.500000X0.348668X0.030505X-0.348668X-0.030505X0*%
%ADD19HorizOval,1.500000X1.443324X0.138976X-1.443324X-0.138976X0*%
%ADD20C,1.200000*%
%ADD21FreePoly0,270.000000*%
%ADD22FreePoly1,270.000000*%
%ADD23O,2.500000X1.700000*%
%ADD24C,0.400000*%
%ADD25R,1.955800X2.311400*%
%ADD26HorizOval,1.600000X0.271892X-0.126785X-0.271892X0.126785X0*%
%ADD27HorizOval,1.500000X0.317208X-0.147916X-0.317208X0.147916X0*%
%ADD28HorizOval,1.500000X1.319444X-0.601305X-1.319444X0.601305X0*%
%ADD29R,1.700000X1.700000*%
%ADD30HorizOval,1.600000X0.295442X-0.052094X-0.295442X0.052094X0*%
%ADD31HorizOval,1.500000X0.344683X-0.060777X-0.344683X0.060777X0*%
%ADD32HorizOval,1.500000X1.430114X-0.239319X-1.430114X0.239319X0*%
%TA.AperFunction,Profile*%
%ADD33C,0.100000*%
%TD*%
%TA.AperFunction,Profile*%
%ADD34C,0.120000*%
%TD*%
G04 APERTURE END LIST*
D10*
%TO.C,K25*%
X32600000Y-26050000D03*
X32600000Y-26050000D03*
D11*
X33020000Y-26050000D03*
X33020000Y-26050000D03*
D12*
X38100000Y-26050000D03*
X38100000Y-26050000D03*
D11*
X43180000Y-26050000D03*
X43180000Y-26050000D03*
D10*
X43600000Y-26050000D03*
X43600000Y-26050000D03*
D13*
X32999999Y-29949999D03*
D14*
X34290000Y-23510000D03*
D15*
X38099999Y-31949999D03*
D14*
X40640000Y-20970000D03*
D16*
X42000041Y-20509598D03*
%TD*%
D10*
%TO.C,K24*%
X13550000Y-24050000D03*
X13550000Y-24050000D03*
D11*
X13970000Y-24050000D03*
X13970000Y-24050000D03*
D12*
X19050000Y-24050000D03*
X19050000Y-24050000D03*
D11*
X24130000Y-24050000D03*
X24130000Y-24050000D03*
D10*
X24550000Y-24050000D03*
X24550000Y-24050000D03*
D13*
X13949999Y-27949999D03*
D14*
X15240000Y-21510000D03*
D15*
X19049999Y-29949999D03*
D14*
X21590000Y-18970000D03*
D16*
X22950041Y-18509598D03*
%TD*%
D10*
%TO.C,K04*%
X13550000Y14050000D03*
X13550000Y14050000D03*
D11*
X13970000Y14050000D03*
X13970000Y14050000D03*
D12*
X19050000Y14050000D03*
X19050000Y14050000D03*
D11*
X24130000Y14050000D03*
X24130000Y14050000D03*
D10*
X24550000Y14050000D03*
X24550000Y14050000D03*
D13*
X13949999Y10149999D03*
D14*
X15240000Y16590000D03*
D15*
X19049999Y8149999D03*
D14*
X21590000Y19130000D03*
D16*
X22950041Y19590400D03*
%TD*%
D10*
%TO.C,K30*%
X9420929Y-47629357D03*
X9420929Y-47629357D03*
D11*
X9839331Y-47592751D03*
X9839331Y-47592751D03*
D12*
X14900000Y-47150000D03*
X14900000Y-47150000D03*
D11*
X19960669Y-46707249D03*
X19960669Y-46707249D03*
D10*
X20379071Y-46670643D03*
X20379071Y-46670643D03*
D17*
X10159313Y-51479653D03*
D14*
X10883123Y-44951729D03*
D18*
X15414218Y-53027548D03*
D14*
X16987583Y-41867955D03*
D19*
X18302322Y-41290770D03*
%TD*%
D10*
%TO.C,K14*%
X13550000Y-5000000D03*
X13550000Y-5000000D03*
D11*
X13970000Y-5000000D03*
X13970000Y-5000000D03*
D12*
X19050000Y-5000000D03*
X19050000Y-5000000D03*
D11*
X24130000Y-5000000D03*
X24130000Y-5000000D03*
D10*
X24550000Y-5000000D03*
X24550000Y-5000000D03*
D13*
X13949999Y-8899999D03*
D14*
X15240000Y-2460000D03*
D15*
X19049999Y-10899999D03*
D14*
X21590000Y80000D03*
D16*
X22950041Y540400D03*
%TD*%
D10*
%TO.C,K23*%
X-5500000Y-19050000D03*
X-5500000Y-19050000D03*
D11*
X-5080000Y-19050000D03*
X-5080000Y-19050000D03*
D12*
X0Y-19050000D03*
X0Y-19050000D03*
D11*
X5080000Y-19050000D03*
X5080000Y-19050000D03*
D10*
X5500000Y-19050000D03*
X5500000Y-19050000D03*
D13*
X-5099999Y-22949999D03*
D14*
X-3810000Y-16510000D03*
D15*
X0Y-24949999D03*
D14*
X2540000Y-13970000D03*
D16*
X3900041Y-13509598D03*
%TD*%
D10*
%TO.C,K03*%
X-5500000Y19050000D03*
X-5500000Y19050000D03*
D11*
X-5080000Y19050000D03*
X-5080000Y19050000D03*
D12*
X0Y19050000D03*
X0Y19050000D03*
D11*
X5080000Y19050000D03*
X5080000Y19050000D03*
D10*
X5500000Y19050000D03*
X5500000Y19050000D03*
D13*
X-5099999Y15149999D03*
D14*
X-3810000Y21590000D03*
D15*
X0Y13149999D03*
D14*
X2540000Y24130000D03*
D16*
X3900041Y24590400D03*
%TD*%
D20*
%TO.C,J1*%
X73460000Y-34320000D03*
X66460000Y-34320000D03*
X73460000Y-36070000D03*
X66460000Y-36070000D03*
D21*
X63159999Y-33969999D03*
D22*
X64659999Y-38169999D03*
D23*
X71659999Y-38169999D03*
X68659999Y-38169999D03*
%TD*%
D24*
%TO.C,LS1*%
X62085000Y15189000D03*
D25*
X62084999Y15188999D03*
D24*
X62085000Y1600000D03*
D25*
X62084999Y1599999D03*
%TD*%
D10*
%TO.C,K15*%
X32600000Y-7000000D03*
X32600000Y-7000000D03*
D11*
X33020000Y-7000000D03*
X33020000Y-7000000D03*
D12*
X38100000Y-7000000D03*
X38100000Y-7000000D03*
D11*
X43180000Y-7000000D03*
X43180000Y-7000000D03*
D10*
X43600000Y-7000000D03*
X43600000Y-7000000D03*
D13*
X32999999Y-10899999D03*
D14*
X34290000Y-4460000D03*
D15*
X38099999Y-12899999D03*
D14*
X40640000Y-1920000D03*
D16*
X42000041Y-1459598D03*
%TD*%
D10*
%TO.C,K32*%
X52915307Y-52825600D03*
X52915307Y-52825600D03*
D11*
X53295956Y-53003099D03*
X53295956Y-53003099D03*
D12*
X57900000Y-55150000D03*
X57900000Y-55150000D03*
D11*
X62504044Y-57296901D03*
X62504044Y-57296901D03*
D10*
X62884693Y-57474400D03*
X62884693Y-57474400D03*
D26*
X51629618Y-56529246D03*
D14*
X55520418Y-51237803D03*
D27*
X55406551Y-60497215D03*
D14*
X62348923Y-51619407D03*
D28*
X63776112Y-51776919D03*
%TD*%
D29*
%TO.C,U1*%
X71034999Y21449999D03*
D11*
X71035000Y18910000D03*
X71035000Y16370000D03*
X71035000Y13830000D03*
X71035000Y11290000D03*
X71035000Y8750000D03*
X71035000Y6210000D03*
X71035000Y3670000D03*
X71035000Y1130000D03*
X71035000Y-1410000D03*
X71035000Y-3950000D03*
X71035000Y-6490000D03*
X71035000Y-9030000D03*
X71035000Y-11570000D03*
X71035000Y-14110000D03*
X71035000Y-16650000D03*
X71035000Y-19190000D03*
X71035000Y-21730000D03*
X71035000Y-24270000D03*
X71035000Y-26810000D03*
X55795000Y-26810000D03*
X55795000Y-24270000D03*
X55795000Y-21730000D03*
X55795000Y-19190000D03*
X55795000Y-16650000D03*
X55795000Y-14110000D03*
X55795000Y-11570000D03*
X55795000Y-9030000D03*
X55795000Y-6490000D03*
X55795000Y-3950000D03*
X55795000Y-1410000D03*
X55795000Y1130000D03*
X55795000Y3670000D03*
X55795000Y6210000D03*
X55795000Y8750000D03*
X55795000Y11290000D03*
X55795000Y13830000D03*
X55795000Y16370000D03*
X55795000Y18910000D03*
X55795000Y21450000D03*
%TD*%
D10*
%TO.C,K05*%
X32600000Y12050000D03*
X32600000Y12050000D03*
D11*
X33020000Y12050000D03*
X33020000Y12050000D03*
D12*
X38100000Y12050000D03*
X38100000Y12050000D03*
D11*
X43180000Y12050000D03*
X43180000Y12050000D03*
D10*
X43600000Y12050000D03*
X43600000Y12050000D03*
D13*
X32999999Y8149999D03*
D14*
X34290000Y14590000D03*
D15*
X38099999Y6149999D03*
D14*
X40640000Y17130000D03*
D16*
X42000041Y17590400D03*
%TD*%
D10*
%TO.C,K13*%
X-5500000Y0D03*
X-5500000Y0D03*
D11*
X-5080000Y0D03*
X-5080000Y0D03*
D12*
X0Y0D03*
X0Y0D03*
D11*
X5080000Y0D03*
X5080000Y0D03*
D10*
X5500000Y0D03*
X5500000Y0D03*
D13*
X-5099999Y-3899999D03*
D14*
X-3810000Y2540000D03*
D15*
X0Y-5899999D03*
D14*
X2540000Y5080000D03*
D16*
X3900041Y5540400D03*
%TD*%
D10*
%TO.C,K31*%
X31483557Y-47194935D03*
X31483557Y-47194935D03*
D11*
X31897177Y-47267867D03*
X31897177Y-47267867D03*
D12*
X36900000Y-48150000D03*
X36900000Y-48150000D03*
D11*
X41902823Y-49032133D03*
X41902823Y-49032133D03*
D10*
X42316443Y-49105065D03*
X42316443Y-49105065D03*
D30*
X31200252Y-51105144D03*
D14*
X33588949Y-44986989D03*
D31*
X35875475Y-53960365D03*
D14*
X40283544Y-43588243D03*
D32*
X41702871Y-43371005D03*
%TD*%
D33*
X3790000Y-57090000D02*
G75*
G03*
X-10673448Y-47830000I-22363650J-19004969D01*
G01*
X63630000Y-68110000D02*
X74635831Y-44865940D01*
X3789970Y-57090029D02*
G75*
G03*
X7610000Y-58539999I3440030J3305929D01*
G01*
X29900001Y23770000D02*
G75*
G03*
X31110000Y22759999I1209999J219800D01*
G01*
X73670000Y22760000D02*
X31110000Y22760000D01*
X-10673448Y28570000D02*
X-10673448Y-47830000D01*
X-9436896Y29806552D02*
X9530000Y29806552D01*
X12003104Y24750000D02*
X28690000Y24750000D01*
X74960028Y21510000D02*
G75*
G03*
X73670000Y22759999I-1241028J9900D01*
G01*
X74635824Y-44865936D02*
G75*
G03*
X74959999Y-43570000I-2650524J1351536D01*
G01*
X10766552Y28570000D02*
X10766552Y25980000D01*
X15940000Y-57820000D02*
X7610000Y-58540000D01*
X53910000Y-64960000D02*
X61613868Y-68641488D01*
X29900008Y23770002D02*
G75*
G03*
X28690000Y24750000I-1210008J-257002D01*
G01*
X10766583Y25980000D02*
G75*
G03*
X12003104Y24750000I1230017J0D01*
G01*
X-9436896Y29806548D02*
G75*
G03*
X-10673448Y28570000I-4J-1236548D01*
G01*
X10766552Y28570000D02*
G75*
G03*
X9530000Y29806552I-1236552J0D01*
G01*
X74960000Y-43570000D02*
X74960000Y21510000D01*
X61613883Y-68641447D02*
G75*
G03*
X63629999Y-68109999I623117J1726047D01*
G01*
X53910001Y-64959998D02*
G75*
G03*
X15940000Y-57820000I-31697901J-64036302D01*
G01*
D34*
%TO.C,LS1*%
X66735000Y14044500D02*
X57435000Y14044500D01*
X57435000Y14044500D02*
X57435000Y2744500D01*
X57435000Y2744500D02*
X66735000Y2744500D01*
X66735000Y2744500D02*
X66735000Y14044500D01*
%TD*%
M02*
