<?xml version="1.0" standalone="no"?>
 <!DOCTYPE svg PUBLIC "-//W3C//DTD SVG 1.1//EN" 
 "http://www.w3.org/Graphics/SVG/1.1/DTD/svg11.dtd"> 
<svg
  xmlns:svg="http://www.w3.org/2000/svg"
  xmlns="http://www.w3.org/2000/svg"
  xmlns:xlink="http://www.w3.org/1999/xlink"
  version="1.1"
  width="175.7172mm" height="104.9782mm" viewBox="0.0000 0.0000 175.7172 104.9782">
<title>SVG Image created as Cantor_MX-brd.svg date 2024/01/04 17:35:59 </title>
  <desc>Image generated by PCBNEW </desc>
<g style="fill:#000000; fill-opacity:1.0000;stroke:#000000; stroke-opacity:1.0000;
stroke-linecap:round; stroke-linejoin:round;"
 transform="translate(0 0) scale(1 1)">
</g>
<g style="fill:#000000; fill-opacity:0.0; 
stroke:#000000; stroke-width:0.0000; stroke-opacity:1; 
stroke-linecap:round; stroke-linejoin:round;">
</g>
<g style="fill:#000000; fill-opacity:1.0000; 
stroke:#000000; stroke-width:0.0212; stroke-opacity:1; 
stroke-linecap:round; stroke-linejoin:round;">
<rect x="-5.000000" y="-5.000000" width="185.740000" height="114.990000" rx="0.000000" />
</g>
<g style="fill:#FFFFFF; fill-opacity:1.0000; 
stroke:#FFFFFF; stroke-width:0.0212; stroke-opacity:1; 
stroke-linecap:round; stroke-linejoin:round;">
</g>
<g style="fill:#2737AD; fill-opacity:1.0000; 
stroke:#2737AD; stroke-width:0.0212; stroke-opacity:1; 
stroke-linecap:round; stroke-linejoin:round;">
</g>
<g style="fill:#2737AD; fill-opacity:1.0000; 
stroke:#2737AD; stroke-width:0.1000; stroke-opacity:1; 
stroke-linecap:round; stroke-linejoin:round;">
</g>
<g style="fill:#2737AD; fill-opacity:0.0; 
stroke:#2737AD; stroke-width:0.1000; stroke-opacity:1; 
stroke-linecap:round; stroke-linejoin:round;">
<path d="M160.3300 64.8800
L139.8300 64.8800
" />
<path d="M139.8300 64.8800
L139.8300 73.6300
" />
<path d="M139.8300 73.6300
L160.3300 73.6300
" />
<path d="M160.3300 73.6300
L160.3300 64.8800
" />
<path d="M133.7250 0.6100
L145.1850 0.6100
" />
<path d="M145.1850 0.6100
L145.1850 16.6100
" />
<path d="M145.1850 16.6100
L133.7250 16.6100
" />
<path d="M133.7250 16.6100
L133.7250 0.6100
" />
<g >
</g>
<g >
</g>
<g >
</g>
<g >
</g>
<g >
</g>
<g >
</g>
<g >
</g>
<g >
</g>
<g >
</g>
<g >
</g>
<g >
</g>
<g >
</g>
<g >
</g>
<g >
</g>
<g >
</g>
<g >
</g>
<g >
</g>
<g >
</g>
<g >
</g>
<g >
</g>
<g >
</g>
<g >
</g>
<g >
</g>
<g >
</g>
<g >
</g>
<g >
</g>
<g >
</g>
<g >
</g>
<g >
</g>
</g>
<g style="fill:#FFFFFF; fill-opacity:0.0; 
stroke:#FFFFFF; stroke-width:0.1000; stroke-opacity:1; 
stroke-linecap:round; stroke-linejoin:round;">
</g>
<g style="fill:#2F2D31; fill-opacity:0.0; 
stroke:#2F2D31; stroke-width:0.1000; stroke-opacity:1; 
stroke-linecap:round; stroke-linejoin:round;">
<path d="M28.7450 43.0345
L28.7450 59.0850
" />
<path d="M65.4600 9.2535 A1.2366 1.2366 0.0 0 0 66.6966 8.0169" />
<path d="M143.0550 30.4200 A1.0000 1.0000 0.0 0 0 144.0550 29.4200" />
<path d="M29.7450 59.0850
L29.7450 43.0345
" />
<path d="M30.9716 80.8100
L57.9700 80.8100
" />
<path d="M141.0000 102.1700
L151.6187 79.7232
" />
<path d="M81.1600 91.1500 A4.7711 4.7711 0.0 0 0 84.9800 92.6000" />
<path d="M28.7450 62.0850
L28.7450 76.5835
" />
<path d="M135.8550 22.8200 A1.0002 1.0002 0.0 0 0 134.8550 23.8200" />
<path d="M134.8550 29.4200
L134.8550 23.8200
" />
<path d="M107.2700 10.2900 A1.2298 1.2298 0.0 0 0 108.4800 11.3000" />
<path d="M29.7450 62.0850 A0.5000 0.5000 0.0 0 0 29.2450 61.5850" />
<path d="M143.0550 30.4200
L135.8550 30.4200
" />
<path d="M30.9616 21.2522
L46.4056 21.2522
" />
<path d="M151.0400 11.3000
L108.4800 11.3000
" />
<path d="M66.6966 5.4900
L66.6966 8.0169
" />
<path d="M67.9331 4.2534
L86.9000 4.2534
" />
<path d="M29.2450 77.0835 A0.5000 0.5000 0.0 0 0 29.7450 76.5835" />
<path d="M144.0479 23.8200
L144.0550 29.4200
" />
<path d="M89.3731 9.3100
L106.0600 9.3100
" />
<path d="M28.7451 25.4787
L28.7450 40.0345
" />
<path d="M29.7451 25.4787 A0.5000 0.5000 0.0 0 0 29.2451 24.9787" />
<path d="M152.3300 12.5500 A1.2411 1.2411 0.0 0 0 151.0400 11.3000" />
<path d="M48.8900 9.2534
L65.4600 9.2534
" />
<path d="M151.6187 79.7232 A6.4374 6.4374 0.0 0 0 152.3300 76.9000" />
<path d="M28.7450 40.0345 A0.5001 0.5001 0.0 0 0 29.2450 40.5345" />
<path d="M28.7450 59.0850 A0.5000 0.5000 0.0 0 0 29.2450 59.5850" />
<path d="M144.0479 23.8200 A1.0000 1.0000 0.0 0 0 143.0479 22.8200" />
<path d="M29.2450 79.0836 A0.4999 0.4999 0.0 0 0 28.7450 79.5835" />
<path d="M29.7451 79.5934 A1.2166 1.2166 0.0 0 0 30.9716 80.8100" />
<path d="M27.5284 80.8101 A1.2167 1.2167 0.0 0 0 28.7450 79.5835" />
<path d="M28.7451 22.4688 A0.5001 0.5001 0.0 0 0 29.2451 22.9787" />
<path d="M29.7451 43.0345 A0.5001 0.5001 0.0 0 0 29.2450 42.5345" />
<path d="M48.8900 9.2535 A1.2366 1.2366 0.0 0 0 47.6400 10.4900" />
<path d="M88.1366 5.4900
L88.1366 8.0800
" />
<path d="M93.3100 91.8800
L84.9800 92.6000
" />
<path d="M29.7450 76.5835
L29.7450 62.0850
" />
<path d="M131.2800 99.0200
L138.9839 102.7015
" />
<path d="M9.4735 79.5934 A1.2166 1.2166 0.0 0 0 10.7000 80.8100" />
<path d="M107.2700 10.2900 A1.2370 1.2370 0.0 0 0 106.0600 9.3100" />
<path d="M29.2451 24.9788 A0.4999 0.4999 0.0 0 0 28.7451 25.4787" />
<path d="M10.7100 21.2534 A1.2366 1.2366 0.0 0 0 9.4734 22.4900" />
<path d="M46.4056 21.2522 A1.2366 1.2366 0.0 0 0 47.6422 20.0156" />
<path d="M135.8550 22.8200
L143.0479 22.8200
" />
<path d="M10.7100 21.2534
L27.5185 21.2522
" />
<path d="M88.1366 8.0800 A1.2300 1.2300 0.0 0 0 89.3731 9.3100" />
<path d="M29.2451 22.9788 A0.5000 0.5000 0.0 0 0 29.7451 22.4787" />
<path d="M29.2450 40.5344 A0.5000 0.5000 0.0 0 0 29.7450 40.0345" />
<path d="M28.7450 22.4688 A1.2166 1.2166 0.0 0 0 27.5185 21.2522" />
<path d="M29.7450 79.5934 A0.5002 0.5002 0.0 0 0 29.2450 79.0835" />
<path d="M67.9331 4.2535 A1.2365 1.2365 0.0 0 0 66.6966 5.4900" />
<path d="M28.7449 76.5835 A0.5001 0.5001 0.0 0 0 29.2450 77.0835" />
<path d="M30.9616 21.2521 A1.2167 1.2167 0.0 0 0 29.7451 22.4787" />
<path d="M134.8550 29.4200 A1.0100 1.0100 0.0 0 0 135.8550 30.4200" />
<path d="M47.6400 10.4900
L47.6422 20.0156
" />
<path d="M81.1600 91.1500 A29.3708 29.3708 0.0 0 0 57.9700 80.8100" />
<path d="M88.1366 5.4900 A1.2366 1.2366 0.0 0 0 86.9000 4.2534" />
<path d="M27.5284 80.8100
L10.7000 80.8100
" />
<path d="M29.2450 59.5850 A0.5000 0.5000 0.0 0 0 29.7450 59.0850" />
<path d="M29.2450 42.5345 A0.5000 0.5000 0.0 0 0 28.7450 43.0345" />
<path d="M29.2450 61.5850 A0.5000 0.5000 0.0 0 0 28.7450 62.0850" />
<path d="M29.7450 40.0345
L29.7451 25.4787
" />
<path d="M152.3300 76.9000
L152.3300 12.5500
" />
<path d="M138.9839 102.7014 A1.8351 1.8351 0.0 0 0 141.0000 102.1700" />
<path d="M9.4734 79.5934
L9.4734 22.4900
" />
<path d="M131.2800 99.0200 A71.4521 71.4521 0.0 0 0 93.3100 91.8800" />
<g >
</g>
<g >
</g>
<g >
</g>
<g >
</g>
<g >
</g>
<g >
</g>
<g >
</g>
<g >
</g>
<g >
</g>
<g >
</g>
<g >
</g>
<g >
</g>
<g >
</g>
<g >
</g>
<g >
</g>
<g >
</g>
<g >
</g>
<g >
</g>
<g >
</g>
<g >
</g>
<g >
</g>
<g >
</g>
<g >
</g>
<g >
</g>
<g >
</g>
<g >
</g>
<g >
</g>
<g >
</g>
<g >
</g>
</g> 
</svg>
