<?xml version="1.0" standalone="no"?>
 <!DOCTYPE svg PUBLIC "-//W3C//DTD SVG 1.1//EN" 
 "http://www.w3.org/Graphics/SVG/1.1/DTD/svg11.dtd"> 
<svg
  xmlns:svg="http://www.w3.org/2000/svg"
  xmlns="http://www.w3.org/2000/svg"
  xmlns:xlink="http://www.w3.org/1999/xlink"
  version="1.1"
  width="142.9512mm" height="98.6536mm" viewBox="0.0000 0.0000 142.9512 98.6536">
<title>SVG Image created as Cantor_MX-brd.svg date 2024/01/04 17:18:22 </title>
  <desc>Image generated by PCBNEW </desc>
<g style="fill:#000000; fill-opacity:1.0000;stroke:#000000; stroke-opacity:1.0000;
stroke-linecap:round; stroke-linejoin:round;"
 transform="translate(0 0) scale(1 1)">
</g>
<g style="fill:#000000; fill-opacity:0.0; 
stroke:#000000; stroke-width:0.0000; stroke-opacity:1; 
stroke-linecap:round; stroke-linejoin:round;">
</g>
<g style="fill:#D0D2CD; fill-opacity:0.0; 
stroke:#D0D2CD; stroke-width:0.0000; stroke-opacity:1; 
stroke-linecap:round; stroke-linejoin:round;">
</g>
<g style="fill:#D0D2CD; fill-opacity:0.0; 
stroke:#D0D2CD; stroke-width:0.1000; stroke-opacity:1; 
stroke-linecap:round; stroke-linejoin:round;">
<path d="M19.3216 38.8311
L19.3216 54.8816
" />
<path d="M56.0366 5.0500 A1.2366 1.2366 0.0 0 0 57.2731 3.8134" />
<path d="M133.6316 26.2166 A1.0000 1.0000 0.0 0 0 134.6316 25.2166" />
<path d="M20.3216 54.8816
L20.3216 38.8311
" />
<path d="M21.5481 76.6066
L48.5466 76.6066
" />
<path d="M131.5766 97.9666
L142.1953 75.5198
" />
<path d="M71.7365 86.9466 A4.7711 4.7711 0.0 0 0 75.5566 88.3966" />
<path d="M19.3216 57.8816
L19.3215 72.3800
" />
<path d="M126.4316 18.6166 A1.0002 1.0002 0.0 0 0 125.4316 19.6166" />
<path d="M125.4316 25.2166
L125.4316 19.6166
" />
<path d="M97.8466 6.0866 A1.2298 1.2298 0.0 0 0 99.0566 7.0966" />
<path d="M20.3216 57.8816 A0.5000 0.5000 0.0 0 0 19.8216 57.3816" />
<path d="M133.6316 26.2166
L126.4316 26.2166
" />
<path d="M21.5382 17.0487
L36.9822 17.0487
" />
<path d="M141.6166 7.0966
L99.0566 7.0966
" />
<path d="M57.2731 1.2866
L57.2731 3.8134
" />
<path d="M58.5097 0.0500
L77.4766 0.0500
" />
<path d="M19.8215 72.8800 A0.5000 0.5000 0.0 0 0 20.3215 72.3800" />
<path d="M134.6244 19.6166
L134.6316 25.2166
" />
<path d="M79.9497 5.1066
L96.6366 5.1066
" />
<path d="M19.3216 21.2753
L19.3216 35.8311
" />
<path d="M20.3216 21.2753 A0.5000 0.5000 0.0 0 0 19.8216 20.7753" />
<path d="M142.9066 8.3466 A1.2411 1.2411 0.0 0 0 141.6166 7.0966" />
<path d="M39.4666 5.0500
L56.0366 5.0500
" />
<path d="M142.1953 75.5198 A6.4374 6.4374 0.0 0 0 142.9066 72.6966" />
<path d="M19.3215 35.8311 A0.5001 0.5001 0.0 0 0 19.8216 36.3311" />
<path d="M19.3216 54.8816 A0.5000 0.5000 0.0 0 0 19.8216 55.3816" />
<path d="M134.6245 19.6166 A1.0000 1.0000 0.0 0 0 133.6244 18.6166" />
<path d="M19.8215 74.8801 A0.4999 0.4999 0.0 0 0 19.3215 75.3800" />
<path d="M20.3216 75.3900 A1.2166 1.2166 0.0 0 0 21.5481 76.6066" />
<path d="M18.1050 76.6067 A1.2167 1.2167 0.0 0 0 19.3215 75.3800" />
<path d="M19.3216 18.2653 A0.5001 0.5001 0.0 0 0 19.8216 18.7753" />
<path d="M20.3216 38.8311 A0.5001 0.5001 0.0 0 0 19.8216 38.3311" />
<path d="M39.4666 5.0500 A1.2366 1.2366 0.0 0 0 38.2166 6.2866" />
<path d="M78.7131 1.2866
L78.7131 3.8766
" />
<path d="M83.8866 87.6766
L75.5566 88.3966
" />
<path d="M20.3215 72.3800
L20.3216 57.8816
" />
<path d="M121.8566 94.8166
L129.5604 98.4980
" />
<path d="M0.0500 75.3900 A1.2166 1.2166 0.0 0 0 1.2766 76.6066" />
<path d="M97.8466 6.0866 A1.2370 1.2370 0.0 0 0 96.6366 5.1066" />
<path d="M19.8216 20.7753 A0.4999 0.4999 0.0 0 0 19.3216 21.2753" />
<path d="M1.2866 17.0500 A1.2366 1.2366 0.0 0 0 0.0500 18.2866" />
<path d="M36.9822 17.0487 A1.2366 1.2366 0.0 0 0 38.2187 15.8122" />
<path d="M126.4316 18.6166
L133.6244 18.6166
" />
<path d="M1.2866 17.0500
L18.0950 17.0488
" />
<path d="M78.7131 3.8766 A1.2300 1.2300 0.0 0 0 79.9497 5.1066" />
<path d="M19.8216 18.7753 A0.5000 0.5000 0.0 0 0 20.3216 18.2753" />
<path d="M19.8216 36.3310 A0.5000 0.5000 0.0 0 0 20.3216 35.8311" />
<path d="M19.3216 18.2653 A1.2166 1.2166 0.0 0 0 18.0950 17.0488" />
<path d="M20.3216 75.3900 A0.5002 0.5002 0.0 0 0 19.8215 74.8800" />
<path d="M58.5097 0.0500 A1.2365 1.2365 0.0 0 0 57.2731 1.2866" />
<path d="M19.3215 72.3800 A0.5001 0.5001 0.0 0 0 19.8215 72.8800" />
<path d="M21.5382 17.0487 A1.2167 1.2167 0.0 0 0 20.3216 18.2753" />
<path d="M125.4316 25.2166 A1.0100 1.0100 0.0 0 0 126.4316 26.2166" />
<path d="M38.2166 6.2866
L38.2187 15.8122
" />
<path d="M71.7366 86.9466 A29.3708 29.3708 0.0 0 0 48.5466 76.6066" />
<path d="M78.7131 1.2866 A1.2366 1.2366 0.0 0 0 77.4766 0.0500" />
<path d="M18.1050 76.6066
L1.2766 76.6066
" />
<path d="M19.8216 55.3816 A0.5000 0.5000 0.0 0 0 20.3216 54.8816" />
<path d="M19.8216 38.3311 A0.5000 0.5000 0.0 0 0 19.3216 38.8311" />
<path d="M19.8216 57.3816 A0.5000 0.5000 0.0 0 0 19.3216 57.8816" />
<path d="M20.3216 35.8311
L20.3216 21.2753
" />
<path d="M142.9066 72.6966
L142.9066 8.3466
" />
<path d="M129.5604 98.4980 A1.8351 1.8351 0.0 0 0 131.5766 97.9666" />
<path d="M0.0500 75.3900
L0.0500 18.2866
" />
<path d="M121.8566 94.8166 A71.4521 71.4521 0.0 0 0 83.8866 87.6766" />
<g >
</g>
<g >
</g>
<g >
</g>
<g >
</g>
<g >
</g>
<g >
</g>
<g >
</g>
<g >
</g>
<g >
</g>
<g >
</g>
<g >
</g>
<g >
</g>
<g >
</g>
<g >
</g>
<g >
</g>
<g >
</g>
<g >
</g>
<g >
</g>
<g >
</g>
<g >
</g>
<g >
</g>
<g >
</g>
<g >
</g>
<g >
</g>
<g >
</g>
<g >
</g>
<g >
</g>
<g >
</g>
<g >
</g>
</g> 
</svg>
